<?xml version="1.0" encoding="utf-8" ?>
<svg baseProfile="tiny" height="100%" version="1.2" width="100%" xmlns="http://www.w3.org/2000/svg" xmlns:ev="http://www.w3.org/2001/xml-events" xmlns:xlink="http://www.w3.org/1999/xlink"><defs /><polygon fill="black" points="161,12 161,14 160,15 160,17 159,18 159,22 157,24 157,27 156,28 156,29 155,30 155,32 154,33 154,34 153,35 153,36 152,37 152,38 151,39 151,40 149,42 149,44 148,45 147,45 145,43 145,42 132,29 131,29 129,27 128,27 127,26 126,26 124,24 123,24 122,23 121,23 120,22 119,22 118,21 116,21 115,20 114,20 113,19 110,19 109,18 107,18 106,17 102,17 101,16 82,16 81,17 77,17 76,18 73,18 72,19 70,19 69,20 68,20 67,21 65,21 64,22 63,22 62,23 61,23 60,24 59,24 57,26 56,26 55,27 54,27 50,31 49,31 42,38 42,39 39,42 39,43 36,46 36,47 35,48 35,49 34,50 34,51 33,52 33,53 32,54 32,55 31,56 31,59 30,60 30,61 29,62 29,66 28,67 28,72 27,73 27,88 28,89 28,94 29,95 29,98 28,99 24,99 23,100 18,100 17,101 10,101 9,102 1,102 1,103 2,104 8,104 9,105 19,105 20,104 29,104 30,103 31,104 31,105 32,106 32,107 33,108 33,109 34,110 34,111 35,112 35,113 36,114 36,115 38,117 38,118 41,121 41,122 44,125 44,126 43,127 41,127 40,128 39,128 38,129 34,129 33,130 32,130 31,131 28,131 27,132 26,132 25,133 22,133 21,134 19,134 18,135 14,135 13,136 12,136 12,139 16,139 17,138 25,138 26,137 28,137 29,136 36,136 37,135 38,135 39,134 43,134 44,133 46,133 47,132 52,132 54,134 55,134 57,136 58,136 60,138 62,138 63,139 64,139 65,140 66,140 67,141 68,141 69,142 71,142 72,143 74,143 75,144 80,144 81,145 103,145 104,144 108,144 109,143 112,143 113,142 114,142 115,141 117,141 118,140 119,140 120,139 121,139 122,138 123,138 124,137 125,137 126,136 127,136 129,134 130,134 133,131 134,131 144,121 144,120 146,118 146,117 147,116 147,115 145,115 142,118 142,119 138,123 137,123 134,126 133,126 131,128 130,128 129,129 128,129 126,131 124,131 123,132 122,132 121,133 120,133 119,134 116,134 115,135 112,135 111,136 105,136 104,137 95,137 94,136 90,136 89,135 86,135 85,134 82,134 81,133 80,133 79,132 77,132 76,131 75,131 74,130 73,130 71,128 70,128 68,126 68,125 69,124 71,124 73,122 75,122 76,121 77,121 78,120 79,120 80,119 81,119 82,118 83,118 85,116 87,116 89,114 90,114 91,113 92,113 94,111 95,111 96,110 97,110 99,108 100,108 102,106 103,106 106,103 107,103 110,100 111,100 117,94 118,94 130,82 130,81 135,76 135,75 138,72 138,71 141,68 141,67 144,64 144,63 146,61 146,59 147,58 148,58 150,60 150,61 151,62 151,64 152,65 152,67 153,68 153,70 154,71 154,75 155,76 155,85 157,85 157,68 156,67 156,64 155,63 155,61 154,60 154,58 153,57 153,56 152,55 152,53 151,52 151,51 152,50 152,48 154,46 154,44 155,43 155,42 156,41 156,40 157,39 157,37 158,36 158,34 159,33 159,31 160,30 160,28 161,27 161,25 162,24 162,18 163,17 163,12" /></svg>